%TF.GenerationSoftware,KiCad,Pcbnew,9.0.7*%
%TF.CreationDate,2026-06-20T22:59:09+03:00*%
%TF.ProjectId,Ramsis,52616d73-6973-42e6-9b69-6361645f7063,rev?*%
%TF.SameCoordinates,Original*%
%TF.FileFunction,Soldermask,Bot*%
%TF.FilePolarity,Negative*%
%FSLAX46Y46*%
G04 Gerber Fmt 4.6, Leading zero omitted, Abs format (unit mm)*
G04 Created by KiCad (PCBNEW 9.0.7) date 2026-06-20 22:59:09*
%MOMM*%
%LPD*%
G01*
G04 APERTURE LIST*
G04 Aperture macros list*
%AMRoundRect*
0 Rectangle with rounded corners*
0 $1 Rounding radius*
0 $2 $3 $4 $5 $6 $7 $8 $9 X,Y pos of 4 corners*
0 Add a 4 corners polygon primitive as box body*
4,1,4,$2,$3,$4,$5,$6,$7,$8,$9,$2,$3,0*
0 Add four circle primitives for the rounded corners*
1,1,$1+$1,$2,$3*
1,1,$1+$1,$4,$5*
1,1,$1+$1,$6,$7*
1,1,$1+$1,$8,$9*
0 Add four rect primitives between the rounded corners*
20,1,$1+$1,$2,$3,$4,$5,0*
20,1,$1+$1,$4,$5,$6,$7,0*
20,1,$1+$1,$6,$7,$8,$9,0*
20,1,$1+$1,$8,$9,$2,$3,0*%
G04 Aperture macros list end*
%ADD10C,3.200000*%
%ADD11C,0.850000*%
%ADD12R,0.850000X0.850000*%
%ADD13RoundRect,0.102000X-0.765000X-0.765000X0.765000X-0.765000X0.765000X0.765000X-0.765000X0.765000X0*%
%ADD14C,1.734000*%
%ADD15O,1.200000X1.750000*%
%ADD16RoundRect,0.250000X-0.350000X-0.625000X0.350000X-0.625000X0.350000X0.625000X-0.350000X0.625000X0*%
%ADD17O,2.601600X4.101600*%
%ADD18O,1.851600X3.101600*%
%ADD19RoundRect,0.250000X0.350000X0.625000X-0.350000X0.625000X-0.350000X-0.625000X0.350000X-0.625000X0*%
%ADD20O,1.500000X2.500000*%
%ADD21R,1.500000X2.500000*%
%ADD22O,2.200000X3.500000*%
%ADD23RoundRect,0.102000X1.395000X-1.395000X1.395000X1.395000X-1.395000X1.395000X-1.395000X-1.395000X0*%
G04 APERTURE END LIST*
D10*
%TO.C,H1*%
X160000000Y-85000000D03*
%TD*%
D11*
%TO.C,J1*%
X175500000Y-53330000D03*
X174500000Y-53330000D03*
D12*
X173500000Y-53330000D03*
%TD*%
D11*
%TO.C,J3*%
X175500000Y-50000000D03*
X174500000Y-50000000D03*
D12*
X173500000Y-50000000D03*
%TD*%
%TO.C,J4*%
X198500000Y-51500000D03*
D11*
X199500000Y-51500000D03*
X200500000Y-51500000D03*
%TD*%
D13*
%TO.C,U1*%
X181070000Y-68530000D03*
D14*
X181070000Y-71070000D03*
X181070000Y-73610000D03*
X181070000Y-76150000D03*
X181070000Y-78690000D03*
X181070000Y-81230000D03*
X181070000Y-83770000D03*
X181070000Y-86310000D03*
X181070000Y-88850000D03*
X181070000Y-91390000D03*
X181070000Y-93930000D03*
X181070000Y-96470000D03*
X181070000Y-99010000D03*
X181070000Y-101550000D03*
X181070000Y-104090000D03*
X181070000Y-106630000D03*
X181070000Y-109170000D03*
X181070000Y-111710000D03*
X181070000Y-114250000D03*
X181070000Y-116790000D03*
X181070000Y-119330000D03*
X181070000Y-121870000D03*
X203930000Y-68530000D03*
X203930000Y-71070000D03*
X203930000Y-73610000D03*
X203930000Y-76150000D03*
X203930000Y-78690000D03*
X203930000Y-81230000D03*
X203930000Y-83770000D03*
X203930000Y-86310000D03*
X203930000Y-88850000D03*
X203930000Y-91390000D03*
X203930000Y-93930000D03*
X203930000Y-96470000D03*
X203930000Y-99010000D03*
X203930000Y-101550000D03*
X203930000Y-104090000D03*
X203930000Y-106630000D03*
X203930000Y-109170000D03*
X203930000Y-111710000D03*
X203930000Y-114250000D03*
X203930000Y-116790000D03*
X203930000Y-119330000D03*
X203930000Y-121870000D03*
%TD*%
D11*
%TO.C,J2*%
X151000000Y-56500000D03*
X150000000Y-56500000D03*
X149000000Y-56500000D03*
D12*
X148000000Y-56500000D03*
%TD*%
D15*
%TO.C,J6*%
X114500000Y-114450000D03*
D16*
X112500000Y-114450000D03*
%TD*%
D17*
%TO.C,U3*%
X115580000Y-57953000D03*
X112080000Y-57953000D03*
D18*
X106260000Y-70407000D03*
X108800000Y-70407000D03*
X111340000Y-70407000D03*
X113880000Y-70407000D03*
X116420000Y-70407000D03*
X118960000Y-70407000D03*
X121500000Y-70407000D03*
%TD*%
D15*
%TO.C,J5*%
X129000000Y-63450000D03*
D19*
X131000000Y-63450000D03*
%TD*%
D20*
%TO.C,SW1*%
X163500000Y-128000000D03*
X161500000Y-128000000D03*
D21*
X159500000Y-128000000D03*
D22*
X165600000Y-128000000D03*
X157400000Y-128000000D03*
%TD*%
D23*
%TO.C,U2*%
X126640000Y-105550000D03*
X141000000Y-105550000D03*
X126640000Y-129000000D03*
X141000000Y-129000000D03*
X129810000Y-105550000D03*
X137830000Y-105550000D03*
%TD*%
M02*
