%TF.GenerationSoftware,KiCad,Pcbnew,9.0.7*%
%TF.CreationDate,2026-06-21T19:41:44+03:00*%
%TF.ProjectId,Ramsis,52616d73-6973-42e6-9b69-6361645f7063,rev?*%
%TF.SameCoordinates,Original*%
%TF.FileFunction,Legend,Bot*%
%TF.FilePolarity,Positive*%
%FSLAX46Y46*%
G04 Gerber Fmt 4.6, Leading zero omitted, Abs format (unit mm)*
G04 Created by KiCad (PCBNEW 9.0.7) date 2026-06-21 19:41:44*
%MOMM*%
%LPD*%
G01*
G04 APERTURE LIST*
%ADD10C,0.150000*%
%ADD11C,0.120000*%
G04 APERTURE END LIST*
D10*
X113833333Y-116454819D02*
X113833333Y-117169104D01*
X113833333Y-117169104D02*
X113880952Y-117311961D01*
X113880952Y-117311961D02*
X113976190Y-117407200D01*
X113976190Y-117407200D02*
X114119047Y-117454819D01*
X114119047Y-117454819D02*
X114214285Y-117454819D01*
X112928571Y-116454819D02*
X113119047Y-116454819D01*
X113119047Y-116454819D02*
X113214285Y-116502438D01*
X113214285Y-116502438D02*
X113261904Y-116550057D01*
X113261904Y-116550057D02*
X113357142Y-116692914D01*
X113357142Y-116692914D02*
X113404761Y-116883390D01*
X113404761Y-116883390D02*
X113404761Y-117264342D01*
X113404761Y-117264342D02*
X113357142Y-117359580D01*
X113357142Y-117359580D02*
X113309523Y-117407200D01*
X113309523Y-117407200D02*
X113214285Y-117454819D01*
X113214285Y-117454819D02*
X113023809Y-117454819D01*
X113023809Y-117454819D02*
X112928571Y-117407200D01*
X112928571Y-117407200D02*
X112880952Y-117359580D01*
X112880952Y-117359580D02*
X112833333Y-117264342D01*
X112833333Y-117264342D02*
X112833333Y-117026247D01*
X112833333Y-117026247D02*
X112880952Y-116931009D01*
X112880952Y-116931009D02*
X112928571Y-116883390D01*
X112928571Y-116883390D02*
X113023809Y-116835771D01*
X113023809Y-116835771D02*
X113214285Y-116835771D01*
X113214285Y-116835771D02*
X113309523Y-116883390D01*
X113309523Y-116883390D02*
X113357142Y-116931009D01*
X113357142Y-116931009D02*
X113404761Y-117026247D01*
D11*
%TO.C,J6*%
X110440000Y-108090000D02*
X116560000Y-108090000D01*
X110440000Y-114310000D02*
X111360000Y-114310000D01*
X110440000Y-115910000D02*
X110440000Y-108090000D01*
X111360000Y-114310000D02*
X111360000Y-115910000D01*
X111360000Y-115910000D02*
X110440000Y-115910000D01*
X111640000Y-114310000D02*
X111360000Y-114310000D01*
X111640000Y-114310000D02*
X111640000Y-115525000D01*
X111700000Y-110350000D02*
X111700000Y-108090000D01*
X112200000Y-110350000D02*
X112200000Y-108090000D01*
X113000000Y-108090000D02*
X113000000Y-112450000D01*
X113000000Y-112450000D02*
X114000000Y-112450000D01*
X114000000Y-112450000D02*
X114000000Y-108090000D01*
X115640000Y-114310000D02*
X115360000Y-114310000D01*
X115640000Y-115910000D02*
X115640000Y-114310000D01*
X116560000Y-108090000D02*
X116560000Y-115910000D01*
X116560000Y-114310000D02*
X115640000Y-114310000D01*
X116560000Y-115910000D02*
X115640000Y-115910000D01*
X111200000Y-111950000D02*
X112200000Y-111950000D01*
X112200000Y-110350000D01*
X111200000Y-110350000D01*
X111200000Y-111950000D01*
X114800000Y-111950000D02*
X115800000Y-111950000D01*
X115800000Y-110350000D01*
X114800000Y-110350000D01*
X114800000Y-111950000D01*
%TD*%
M02*
